<?xml version="1.0" encoding="UTF-8"?>
<svg width="137px" height="63px" viewBox="0 0 137 63" version="1.1" xmlns="http://www.w3.org/2000/svg" xmlns:xlink="http://www.w3.org/1999/xlink">
    <!-- Generator: Sketch 43.1 (39012) - http://www.bohemiancoding.com/sketch -->
    <title>лого</title>
    <desc>Created with Sketch.</desc>
    <defs>
        <polygon id="path-1" points="0.267295475 7.33393339 11.6982801 7.33393339 11.6982801 0.0825984248 0.267295475 0.0825984248"></polygon>
    </defs>
    <g id="Symbols" stroke="none" stroke-width="1" fill="none" fill-rule="evenodd">
        <g id="лого">
            <g>
                <polygon id="Fill-1" fill="#BDE2F4" points="42.1671577 51.5210043 43.3526293 51.5280327 43.3526293 35.8410547 42.1671577 35.155332"></polygon>
                <polygon id="Fill-2" fill="#BDE2F4" points="0 26.997645 1.18516654 27.0037567 1.26417764 10.2078269 0.0787060403 10.2017153"></polygon>
                <polygon id="Fill-3" fill="#BDE2F4" points="19.828431 6.11161116e-05 18.6444847 0.684867147 31.9561777 8.42369478 31.9561777 7.05102691"></polygon>
                <g id="Group-41" transform="translate(2.440497, 1.329275)">
                    <path d="M13.1881732,23.4471351 L7.0741172,23.4471351 C6.97375175,23.4471351 6.94324553,23.4223831 6.93805947,23.4162715 C6.93653416,23.4147436 6.90175708,23.3744069 6.90175708,23.209699 L6.90175708,22.4268016 C6.90175708,22.2718723 6.92829749,22.194866 6.94416072,22.1670581 C6.96734544,22.1331387 7.03415406,22.1254992 7.08509944,22.1254992 L12.6009286,22.1254992 C12.8071506,22.1254992 13.103366,22.0518543 13.3358233,21.707465 C13.5130645,21.4706401 13.6030578,21.1699488 13.6030578,20.8154753 L13.6030578,19.6460185 C13.6030578,19.2606815 13.4816431,18.9428777 13.2412541,18.7008579 L13.2385085,18.6974965 C13.0127625,18.4787008 12.7321053,18.3680806 12.4047736,18.3680806 L6.36759321,18.3680806 C6.04209188,18.3680806 5.84197109,18.5905433 5.83251416,18.9685464 C5.83251416,19.5418156 6.2330608,19.5861248 6.35600085,19.5861248 L12.328508,19.5861248 C12.4169761,19.5861248 12.4816493,19.6023205 12.4978176,19.6197386 C12.519477,19.6487688 12.5551692,19.7233304 12.5551692,19.9033174 L12.5551692,20.7027161 C12.5551692,20.7473309 12.5496781,20.8276986 12.5054441,20.8683408 C12.4798189,20.8940095 12.4249077,20.9077607 12.3501675,20.9077607 L6.88955459,20.9077607 C6.55459632,20.9077607 6.29224286,21.0388547 6.10523975,21.3013484 C5.9386758,21.5485631 5.85386852,21.8730896 5.85386852,22.2663718 L5.85386852,23.3710455 C5.85386852,23.744465 5.93593024,24.0485176 6.09456257,24.2709803 C6.26814295,24.5285847 6.52409011,24.6651792 6.8346434,24.6651792 L13.2321022,24.6651792 C13.3968358,24.6651792 13.5341137,24.5842004 13.618921,24.4390496 C13.6878651,24.322929 13.7229472,24.1915293 13.7223371,24.0344609 C13.7131852,23.8951162 13.6744423,23.7686059 13.5874996,23.62865 C13.4849987,23.5103903 13.3465005,23.4471351 13.1881732,23.4471351" id="Fill-4" fill="#243F8D"></path>
                    <path d="M13.9497915,16.1229192 L10.2310836,16.1229192 L10.2310836,14.2442099 C10.2310836,14.0926419 10.2021027,13.9792716 10.1572585,13.8940146 L13.2423523,13.8940146 C13.3494291,13.8940146 13.5028754,13.8564282 13.6367977,13.6553562 C13.6941494,13.5416802 13.7231303,13.4148643 13.7231303,13.2770474 C13.7231303,13.1309799 13.682557,12.9968301 13.594089,12.8645137 C13.4982994,12.7416703 13.3616316,12.6762761 13.1987284,12.6762761 L7.26984509,12.6762761 C7.05996232,12.6762761 7.00566125,12.5959084 6.99162839,12.5760456 C6.95837662,12.5216523 6.90194011,12.3816964 6.90194011,12.0525861 L6.90194011,10.0855641 C6.90194011,9.88235302 6.85190992,9.71183906 6.75093434,9.57677246 C6.55355911,9.32344617 6.18839969,9.32589082 5.98644854,9.58746778 C5.89828557,9.71703393 5.85405155,9.88449208 5.85405155,10.0855641 L5.85405155,12.1971257 C5.85405155,12.7129457 5.97424605,13.1288409 6.21219454,13.4313656 L6.21402492,13.4344214 C6.46326071,13.7390852 6.81865814,13.8940146 7.26984509,13.8940146 L9.28173011,13.8940146 C9.2350556,13.9820218 9.20454938,14.100587 9.20454938,14.2601001 L9.20454938,16.1229192 L5.50811105,16.1229192 C5.34459773,16.1229192 5.20762481,16.1883134 5.1045138,16.3224633 C5.03373937,16.427583 4.99347117,16.5519543 4.98401424,16.694966 C4.97425225,16.8410335 5.00140278,16.9705996 5.05905953,17.0708301 C5.13624026,17.2239259 5.2649765,17.3082662 5.42055821,17.3082662 L13.9607737,17.3082662 C14.0812733,17.3082662 14.4738883,17.2648737 14.4738883,16.7074948 L14.4738883,16.7019943 C14.4632111,16.3392702 14.2676662,16.1229192 13.9497915,16.1229192" id="Fill-6" fill="#243F8D"></path>
                    <path d="M23.0145309,17.7437796 C23.1225229,17.7437796 23.2762742,17.7058876 23.3824358,17.544541 C23.4858519,17.42292 23.5380175,17.2603511 23.5380175,17.0623349 L23.5380175,14.4905689 L24.526419,14.4905689 C24.6707134,14.4905689 25.0065868,14.4306752 25.0065868,13.8736018 C25.0065868,13.3315019 24.6707134,13.2725248 24.526419,13.2725248 L23.5380175,13.2725248 L23.5380175,10.0190086 C23.5380175,9.44940648 23.1719429,9.38767921 23.0145309,9.38767921 C22.8598643,9.38767921 22.5017213,9.44940648 22.5017213,10.0196198 L22.5017213,17.0635572 C22.5017213,17.2572953 22.5483959,17.4168084 22.6332031,17.5277341 C22.7543128,17.7064987 22.907454,17.7437796 23.0145309,17.7437796" id="Fill-8" fill="#243F8D"></path>
                    <path d="M16.3779338,10.9438482 L19.4569263,10.9438482 C19.5728499,10.9438482 19.6268459,10.9893797 19.651556,11.0165764 C19.7079925,11.0859432 19.7381936,11.2103144 19.7381936,11.3750224 L19.7381936,12.0842748 C19.7381936,12.3556304 19.6857229,12.4130795 19.6701648,12.4311088 C19.6509459,12.4561664 19.5853575,12.4824463 19.4569263,12.4824463 L17.085373,12.4824463 C16.7016048,12.4824463 16.388611,12.6532658 16.1772029,12.9793203 C15.9987415,13.2680939 15.9084431,13.6500696 15.9084431,14.1151632 L15.9084431,15.885697 C15.9084431,16.3523185 16.0033175,16.7361277 16.1887953,17.0221511 C16.408135,17.372652 16.7388224,17.5498887 17.1720107,17.5498887 C18.1131275,17.5498887 18.950218,17.4945786 19.661318,17.3870143 C20.5700982,17.2452249 21.3617345,17.0053441 22.0292105,16.6667609 C22.1582518,16.5879211 22.2485502,16.4635498 22.2943096,16.2963973 C22.3214601,16.1604139 22.3174943,16.0177078 22.2805818,15.8661398 C22.2397034,15.7157942 22.163743,15.5981457 22.0548358,15.5162501 C21.9752145,15.4575786 21.8089557,15.3781277 21.5868704,15.5058604 C21.1018215,15.7928005 20.4679024,16.0125129 19.7021963,16.1585804 C18.9910964,16.2957861 18.1652931,16.3648473 17.2479711,16.3648473 C17.1155741,16.3648473 17.065849,16.3141209 17.0350377,16.2649225 C16.9944645,16.1983059 16.9450444,16.0647672 16.9450444,15.8050237 L16.9450444,14.1637505 C16.9450444,13.9131745 16.9904987,13.8196668 17.0145986,13.7833027 C17.0261909,13.7631344 17.0545617,13.7163806 17.1826878,13.7163806 L19.543564,13.7163806 C19.9496017,13.7163806 20.2595449,13.5758135 20.461191,13.3017078 C20.6549055,13.0520485 20.7531355,12.6966583 20.7531355,12.2453158 L20.7531355,11.1491983 C20.7531355,10.7155795 20.6417878,10.3681344 20.4215329,10.1157249 L20.4209228,10.1157249 C20.1942616,9.85689815 19.8882842,9.7258041 19.5109223,9.7258041 L16.3992882,9.7258041 C16.0579236,9.7258041 15.8541421,9.95071139 15.8541421,10.3222973 C15.848956,10.5313144 15.8995963,10.6929666 16.0048428,10.8011421 C16.0972766,10.8958721 16.2229622,10.9438482 16.3779338,10.9438482" id="Fill-10" fill="#243F8D"></path>
                    <path d="M16.7171019,19.0639793 C16.5340646,19.3225004 16.4413257,19.6485549 16.4413257,20.032364 L16.4413257,22.9362961 C16.4413257,23.4117794 16.5279634,23.7653361 16.7036792,24.0137731 C16.9019696,24.307436 17.2235051,24.4556426 17.6600491,24.4556426 L22.4065114,24.4556426 C22.7582481,24.4556426 23.0376851,24.3269932 23.233535,24.0755004 C23.4357912,23.8255355 23.5382921,23.468923 23.5382921,23.0166638 L23.5382921,19.9681921 C23.5382921,19.5773546 23.434571,19.2571062 23.2298742,19.0178366 C23.017856,18.7681773 22.7268267,18.6422781 22.3638027,18.6422781 L17.5191104,18.6422781 C17.1847622,18.6422781 16.9144772,18.7840675 16.7171019,19.0639793 M17.7265527,19.8594054 L22.2109666,19.8594054 C22.3677685,19.8594054 22.4208494,19.8963807 22.4354923,19.9098262 C22.4562366,19.9345783 22.5013858,20.0100567 22.5013858,20.2099063 L22.5013858,22.9197947 C22.5013858,23.0463051 22.4782011,23.1413406 22.4357974,23.186261 C22.4052912,23.2183469 22.330551,23.2375985 22.2323209,23.2375985 L17.7692614,23.2375985 C17.6551681,23.2375985 17.5715811,23.2165135 17.5404647,23.178927 C17.5255167,23.161509 17.4785371,23.0875585 17.4785371,22.8550117 L17.4785371,20.2422979 C17.4785371,20.0143348 17.5191104,19.9370229 17.527042,19.9247997 C17.5392445,19.9089095 17.5752418,19.8594054 17.7265527,19.8594054" id="Fill-12" fill="#243F8D"></path>
                    <path d="M34.2942352,23.1061989 L37.4943373,23.1061989 C37.7713338,23.1061989 37.9208143,22.9564644 37.9208143,22.6783861 L37.9208143,15.2420832 L43.2331669,22.8281206 C43.361293,23.0203307 43.5321278,23.1061989 43.7453663,23.1061989 L46.6254583,23.1061989 C46.9027598,23.1061989 47.0522402,22.9564644 47.0522402,22.6783861 L47.0522402,7.78316737 C47.0522402,7.50570023 46.9027598,7.35596575 46.6254583,7.35596575 L43.4253561,7.35596575 C43.1477495,7.35596575 42.998269,7.50570023 42.998269,7.78316737 L42.998269,15.4550729 L37.5156917,7.63373848 C37.3875656,7.44152831 37.2173409,7.35596575 37.0031872,7.35596575 L34.2942352,7.35596575 C34.0166286,7.35596575 33.8677582,7.50570023 33.8677582,7.78316737 L33.8677582,22.6783861 C33.8677582,22.9564644 34.0166286,23.1061989 34.2942352,23.1061989" id="Fill-14" fill="#243F8D"></path>
                    <path d="M56.9080058,23.5335533 C61.4735663,23.5335533 65.1861729,19.8155546 65.1861729,15.2416248 C65.1861729,10.6680006 61.4735663,6.95000198 56.9080058,6.95000198 C52.3430555,6.95000198 48.6304489,10.6680006 48.6304489,15.2416248 C48.6304489,19.8155546 52.3430555,23.5335533 56.9080058,23.5335533 M56.9080058,11.1599853 C59.1697368,11.1599853 61.0046857,12.9766617 61.0046857,15.2416248 C61.0046857,17.5068935 59.1697368,19.3449606 56.9080058,19.3449606 C54.646885,19.3449606 52.8332904,17.5068935 52.8332904,15.2416248 C52.8332904,12.9766617 54.646885,11.1599853 56.9080058,11.1599853" id="Fill-16" fill="#243F8D"></path>
                    <path d="M67.2124874,23.1061989 L78.9677531,23.1061989 C79.2450546,23.1061989 79.3948401,22.9564644 79.3948401,22.6783861 L79.3948401,19.4942367 C79.3948401,19.2167695 79.2450546,19.0670351 78.9677531,19.0670351 L70.8177121,19.0670351 L70.8177121,7.80455801 C70.8177121,7.52709086 70.6688418,7.37705081 70.3912352,7.37705081 L67.2124874,7.37705081 C66.9354909,7.37705081 66.7860105,7.52709086 66.7860105,7.80455801 L66.7860105,22.6783861 C66.7860105,22.9564644 66.9354909,23.1061989 67.2124874,23.1061989" id="Fill-18" fill="#243F8D"></path>
                    <path d="M81.420514,23.1061989 L93.1754746,23.1061989 C93.4536913,23.1061989 93.6025617,22.9564644 93.6025617,22.6783861 L93.6025617,19.4942367 C93.6025617,19.2167695 93.4536913,19.0670351 93.1754746,19.0670351 L85.0257387,19.0670351 L85.0257387,7.80455801 C85.0257387,7.52709086 84.8768684,7.37705081 84.5992618,7.37705081 L81.420514,7.37705081 C81.1435175,7.37705081 80.9940371,7.52709086 80.9940371,7.80455801 L80.9940371,22.6783861 C80.9940371,22.9564644 81.1435175,23.1061989 81.420514,23.1061989" id="Fill-20" fill="#243F8D"></path>
                    <path d="M106.21069,7.69781872 C106.125577,7.48421791 105.975792,7.37726472 105.720455,7.37726472 L102.711627,7.37726472 C102.477034,7.37726472 102.327553,7.48421791 102.221087,7.69781872 L95.1167988,22.5936486 C94.9889777,22.8922008 95.1167988,23.1064128 95.436809,23.1064128 L98.9358721,23.1064128 C99.1701599,23.1064128 99.3196403,22.999154 99.4264121,22.7852476 L100.365393,20.8619236 L107.234783,20.8619236 L108.024284,22.763857 C108.109702,22.999154 108.259182,23.1064128 108.514824,23.1064128 L112.120354,23.1064128 C112.440364,23.1064128 112.56849,22.9135914 112.440364,22.6144281 L106.21069,7.69781872 Z M102.306504,16.8230653 L104.098134,13.1472368 L105.592329,16.8230653 L102.306504,16.8230653 Z" id="Fill-22" fill="#243F8D"></path>
                    <path d="M133.454175,7.37717304 L129.784888,7.37717304 C129.571039,7.37717304 129.401119,7.46243002 129.272993,7.65525135 L123.896578,15.3057662 L118.541211,7.65525135 C118.41339,7.46243002 118.242555,7.37717304 118.029317,7.37717304 L114.360029,7.37717304 C114.082422,7.37717304 113.933552,7.52690752 113.933552,7.80437466 L113.933552,22.6782027 C113.933552,22.9562811 114.082422,23.1060155 114.360029,23.1060155 L117.538777,23.1060155 C117.816078,23.1060155 117.965559,22.9562811 117.965559,22.6782027 L117.965559,13.8744269 L123.597312,21.8879714 C123.768451,22.1446591 124.024399,22.1446591 124.194928,21.8879714 L129.848646,13.8744269 L129.848646,22.6782027 C129.848646,22.9562811 129.998126,23.1060155 130.275123,23.1060155 L133.454175,23.1060155 C133.731782,23.1060155 133.880652,22.9562811 133.880652,22.6782027 L133.880652,7.80437466 C133.880652,7.52690752 133.731782,7.37717304 133.454175,7.37717304" id="Fill-24" fill="#243F8D"></path>
                    <g id="Group-28" transform="translate(57.961813, 52.865437)">
                        <mask id="mask-2" fill="white">
                            <use xlink:href="#path-1"></use>
                        </mask>
                        <g id="Clip-27"></g>
                        <polygon id="Fill-26" fill="#BDE2F4" mask="url(#mask-2)" points="0.267295475 6.64769113 1.45398732 7.33402507 11.6982801 1.4473212 11.6982801 0.0825984248"></polygon>
                    </g>
                    <polygon id="Fill-29" fill="#BDE2F4" points="60.8864741 25.4134238 69.6597571 30.5157023 69.6597571 29.1454791 62.0566926 24.7365628"></polygon>
                    <path d="M43.5147698,49.5547462 L43.5147698,33.8784636 L56.9619103,26.1011328 L69.6598182,33.4451504 L69.6598182,32.0737048 L58.5082705,25.6244271 L58.4286492,25.5779789 L56.9619103,24.7299928 L43.0666335,32.7661504 L29.5142465,24.9286202 L29.4819099,8.62528627 L14.7946917,0.170483393 L8.23341447,3.96518276 L0.120286014,8.6845689 L0.120286014,25.6742368 L14.8438067,34.139735 L28.9251714,25.9587323 L42.2765224,33.6801418 L42.2765224,50.2096054 L56.9619103,58.7029114 L69.6598182,51.3585883 L69.6598182,49.9880595 L56.9619103,57.332077 L43.5147698,49.5547462 Z M1.29019944,9.36723587 L14.7785234,1.53031688 L28.2979636,9.31314811 L28.32908,24.821667 L14.7132401,32.6952557 L1.32131578,24.9863749 L1.29019944,9.36723587 Z" id="Fill-31" fill="#BDE2F4"></path>
                    <path d="M55.2632326,32.957291 L52.0841797,32.957291 C51.8071833,32.957291 51.6577028,33.1067199 51.6577028,33.3847982 L51.6577028,48.2586263 C51.6577028,48.536399 51.8071833,48.6864391 52.0841797,48.6864391 L63.8397505,48.6864391 C64.116747,48.6864391 64.2665325,48.536399 64.2665325,48.2586263 L64.2665325,45.0744769 C64.2665325,44.7970097 64.116747,44.6469697 63.8397505,44.6469697 L55.6897095,44.6469697 L55.6897095,33.3847982 C55.6897095,33.1067199 55.5405341,32.957291 55.2632326,32.957291" id="Fill-33" fill="#243F8D"></path>
                    <path d="M81.2259758,43.6978365 L76.8739589,33.277845 C76.7888465,33.0642442 76.6399762,32.9575966 76.383724,32.9575966 L73.3755059,32.9575966 C73.140608,32.9575966 72.9917377,33.0642442 72.8849659,33.277845 L70.5585618,38.1555219 L65.780068,48.1733693 C65.652552,48.4725327 65.780068,48.6861335 66.1006883,48.6861335 L69.5994463,48.6861335 C69.8340392,48.6861335 69.9832146,48.5791803 70.0896813,48.3655795 L70.5585618,47.4054454 L71.0286626,46.4422554 L77.8986627,46.4422554 L78.6878586,48.3441888 C78.773276,48.5791803 78.9224514,48.6861335 79.1780935,48.6861335 L81.2259758,48.6861335 L82.7842334,48.6861335 C83.1036335,48.6861335 83.2317596,48.4936177 83.1036335,48.1947599 L81.2259758,43.6978365 Z M72.9703833,42.4033972 L74.7626236,38.7275687 L76.2555979,42.4033972 L72.9703833,42.4033972 Z" id="Fill-35" fill="#243F8D"></path>
                    <path d="M95.9517844,40.0738344 C96.8273129,39.6994982 97.3550704,38.3216355 97.3550704,37.4452304 C97.3550704,35.2866094 95.6055389,32.9360837 91.7867706,32.9360837 L85.0238473,32.9360837 C84.7462408,32.9360837 84.5967603,33.0855126 84.5967603,33.3632853 L84.5967603,48.2591152 C84.5967603,48.5362768 84.7462408,48.6863168 85.0238473,48.6863168 L92.1281352,48.6863168 C96.0106614,48.6863168 97.7171792,46.2713137 97.7171792,43.8777012 C97.7171792,42.3174068 97.4200487,40.8108947 95.9517844,40.0738344 L95.9517844,40.0738344 Z M88.6501214,36.4025896 L92.5918297,36.4025896 C92.8904856,36.4025896 93.5521654,36.8160401 93.5024403,37.7230032 C93.4530202,38.6299662 92.8904856,38.8991827 92.5918297,38.8991827 L88.6501214,38.8991827 L88.6501214,36.4025896 Z M92.5332578,44.647153 L88.628767,44.647153 L88.628767,41.7725567 L92.5332578,41.7725567 C93.2159869,41.7725567 93.770895,42.5258128 93.770895,43.2093965 C93.770895,43.8932858 93.2159869,44.647153 92.5332578,44.647153 L92.5332578,44.647153 Z" id="Fill-37" fill="#243F8D"></path>
                    <polygon id="Fill-39" fill="#BDE2F4" points="29.6213233 27.98192 28.932798 27.5840541 16.1778435 34.9589353 17.3630101 35.6440469 30.085933 28.2878062"></polygon>
                </g>
            </g>
        </g>
    </g>
</svg>